<svg width="32" height="32" viewBox="0 0 32 32" fill="none" xmlns="http://www.w3.org/2000/svg">
<g id="Icon - Apple">
<path id="Vector" d="M22.3494 25.54C21.0428 26.8067 19.6161 26.6067 18.2428 26.0067C16.7894 25.3933 15.4561 25.3667 13.9228 26.0067C12.0028 26.8333 10.9894 26.5933 9.84277 25.54C3.3361 18.8333 4.2961 8.62 11.6828 8.24667C13.4828 8.34 14.7361 9.23333 15.7894 9.31333C17.3628 8.99333 18.8694 8.07333 20.5494 8.19333C22.5628 8.35333 24.0828 9.15333 25.0828 10.5933C20.9228 13.0867 21.9094 18.5667 25.7228 20.1C24.9628 22.1 23.9761 24.0867 22.3361 25.5533L22.3494 25.54ZM15.6561 8.16667C15.4561 5.19333 17.8694 2.74 20.6428 2.5C21.0294 5.94 17.5228 8.5 15.6561 8.16667Z" fill="white"/>
</g>
</svg>
