<svg width="16" height="16" viewBox="0 0 16 16" fill="none" xmlns="http://www.w3.org/2000/svg">
<path d="M13.3332 7.49996C13.3332 6.85654 12.7352 6.33329 11.9998 6.33329H11.3332V4.58329C11.3332 2.97504 9.83784 1.66663 7.99984 1.66663C6.16184 1.66663 4.6665 2.97504 4.6665 4.58329V6.33329H3.99984C3.2645 6.33329 2.6665 6.85654 2.6665 7.49996V12.1666C2.6665 12.81 3.2645 13.3333 3.99984 13.3333H11.9998C12.7352 13.3333 13.3332 12.81 13.3332 12.1666V7.49996ZM5.99984 4.58329C5.99984 3.61846 6.89717 2.83329 7.99984 2.83329C9.1025 2.83329 9.99984 3.61846 9.99984 4.58329V6.33329H5.99984V4.58329Z" fill="#999999"/>
</svg>
