<svg width="99" height="14" viewBox="0 0 99 14" fill="none" xmlns="http://www.w3.org/2000/svg">
<path d="M6.81299 13.2461C2.43102 13.2461 0.21465 11.2469 0.806809 7.0637C1.39897 2.8805 4.17366 0.864502 8.55563 0.864502C9.23239 0.864502 10.1122 0.898103 10.7889 0.948503L10.2814 4.4933C9.58768 4.4261 8.75866 4.3757 8.06499 4.3757C5.95013 4.3757 4.83349 4.9301 4.52895 7.0637C4.24133 9.1973 5.18879 9.7349 7.30364 9.7349C7.99731 9.7349 8.91093 9.6677 9.6046 9.6005L9.11395 13.1453C8.42028 13.1957 7.48975 13.2461 6.81299 13.2461Z" fill="#FCFCFC"/>
<path d="M11.7674 12.9941L13.4424 1.1333H17.0969L15.8956 9.6341H20.2945L19.8208 12.9941H11.7674Z" fill="#FCFCFC"/>
<path d="M21.9043 12.9941L23.5793 1.1333H27.2338L25.5588 12.9941H21.9043Z" fill="#FCFCFC"/>
<path d="M34.809 13.2461C30.427 13.2461 28.2107 11.2469 28.8028 7.0637C29.395 2.8805 32.1697 0.864502 36.5517 0.864502C37.2284 0.864502 38.1082 0.898103 38.785 0.948503L38.2774 4.4933C37.5837 4.4261 36.7547 4.3757 36.061 4.3757C33.9462 4.3757 32.8295 4.9301 32.525 7.0637C32.2374 9.1973 33.1848 9.7349 35.2997 9.7349C35.9933 9.7349 36.907 9.6677 37.6006 9.6005L37.11 13.1453C36.4163 13.1957 35.4858 13.2461 34.809 13.2461Z" fill="#FCFCFC"/>
<path d="M47.3262 12.9941L44.7714 8.5085H44.0439L43.4179 12.9941H39.7635L41.4384 1.1333H45.0929L44.4838 5.3837H45.1775L49.0011 1.1333H53.1801L47.8845 6.8789L51.5051 12.9941H47.3262Z" fill="#FCFCFC"/>
<path d="M53.614 4.7453C54.0201 1.8053 56.7102 0.881303 60.2801 0.864502C60.9737 0.864502 62.581 0.881303 63.2409 0.931702L62.7333 4.5101C62.0904 4.4429 60.5169 4.3421 59.8402 4.3421C58.4021 4.3421 57.6069 4.4261 57.5392 4.9469C57.4546 5.5349 58.6728 5.5853 59.8232 5.8205C61.3629 6.1397 63.4608 6.8789 63.1224 9.2477C62.7333 12.0533 60.5846 13.2125 55.9827 13.2293C55.1198 13.2293 53.208 13.1453 52.6327 12.9773L53.1403 9.3989C53.8847 9.5837 55.6274 9.7517 56.5748 9.7517C58.3175 9.7517 59.0957 9.6845 59.1803 9.1637C59.2818 8.4749 57.6576 8.5085 56.2872 8.1725C54.9337 7.8533 53.2926 7.0301 53.614 4.7453Z" fill="#FCFCFC"/>
<path d="M76.5176 5.2829C76.1285 8.0549 74.2674 9.4325 70.2238 9.4325H68.9888L68.4981 12.9941H64.8436L66.5186 1.1333H71.3912C75.401 1.1333 76.9237 2.5109 76.5176 5.2829ZM72.7955 5.2997C72.897 4.6445 72.5248 4.4765 71.0529 4.4765H69.6994L69.4625 6.1397H70.816C72.2879 6.1397 72.7109 5.9549 72.7955 5.2997Z" fill="#FCFCFC"/>
<path d="M77.5745 12.9941L79.2495 1.1333H82.904L81.229 12.9941H77.5745Z" fill="#FCFCFC"/>
<path d="M91.5451 12.9941L89.1088 5.3669L88.026 12.9941H84.4054L86.0803 1.1333H91.2744L93.7107 8.7773L94.7935 1.1333H98.4142L96.7392 12.9941H91.5451Z" fill="#FCFCFC"/>
</svg>
