<svg width="23" height="23" viewBox="0 0 23 23" fill="none" xmlns="http://www.w3.org/2000/svg">
<g id="Button - Close">
<rect width="23" height="23" rx="8" fill="#202020"/>
<g id="Vector">
<path id="Union" d="M15.3941 8.23843C15.5688 8.06378 15.5688 7.78062 15.3941 7.60596C15.2195 7.43131 14.9363 7.43131 14.7616 7.60596L11.5001 10.8675L8.23855 7.60596C8.0639 7.43131 7.78074 7.43131 7.60609 7.60596C7.43143 7.78062 7.43143 8.06378 7.60609 8.23843L10.8676 11.5L7.60609 14.7615C7.43143 14.9362 7.43143 15.2193 7.60609 15.394C7.78074 15.5686 8.0639 15.5686 8.23855 15.394L11.5001 12.1324L14.7616 15.394C14.9363 15.5686 15.2195 15.5686 15.3941 15.394C15.5688 15.2193 15.5688 14.9362 15.3941 14.7615L12.1326 11.5L15.3941 8.23843Z" fill="#999999"/>
</g>
</g>
</svg>
