<svg width="16" height="16" viewBox="0 0 16 16" fill="none" xmlns="http://www.w3.org/2000/svg">
<path d="M14.4001 5.89841V11.6C14.4001 12.1304 14.1894 12.6392 13.8143 13.0142C13.4392 13.3893 12.9305 13.6 12.4001 13.6H3.6001C3.06966 13.6 2.56096 13.3893 2.18588 13.0142C1.81081 12.6392 1.6001 12.1304 1.6001 11.6V5.89841L7.7969 9.54481C7.85846 9.58112 7.92863 9.60027 8.0001 9.60027C8.07157 9.60027 8.14174 9.58112 8.2033 9.54481L14.4001 5.89841ZM12.4001 3.20001C12.8922 3.19993 13.3671 3.3813 13.7339 3.7094C14.1006 4.03751 14.3336 4.48933 14.3881 4.97841L8.0001 8.73601L1.6121 4.97841C1.66662 4.48933 1.89956 4.03751 2.26633 3.7094C2.63311 3.3813 3.10798 3.19993 3.6001 3.20001H12.4001Z" fill="#999999"/>
</svg>
