<svg width="56" height="35" viewBox="0 0 56 35" fill="none" xmlns="http://www.w3.org/2000/svg">
<path fill-rule="evenodd" clip-rule="evenodd" d="M21.1382 0.0244287C11.1097 0.573777 4.35799 5.17613 1.43788 13.4534C0.789537 15.2911 0.317792 17.4314 0.0642277 19.6854C-0.0312065 20.5342 -0.0173906 23.1861 0.0864334 23.9448C0.671897 28.2221 2.74459 31.1866 6.43319 33.0226C8.40553 34.0043 10.6499 34.5854 13.6831 34.8994C14.2953 34.9628 15.0747 34.9779 18.5278 34.9935C21.6672 35.0077 22.6429 34.9997 22.6429 34.9595C22.6429 34.9306 22.8389 33.8304 23.0786 32.5145C23.785 28.6354 24.1022 26.8905 24.1741 26.4871C24.3098 25.7254 24.3789 25.3476 24.3999 25.2522L24.4215 25.1546L20.6253 25.1377C17.3954 25.1234 16.7375 25.1096 16.2137 25.045C12.863 24.6318 11.321 23.4737 10.8919 21.0476C10.7916 20.4804 10.7943 19.1708 10.8975 18.4143C11.5775 13.4267 13.5937 10.9524 17.6204 10.1641C19.0081 9.89244 19.2056 9.88209 23.3809 9.86274L27.1966 9.84508L27.2223 9.72537C27.2677 9.51369 28.9808 0.0696992 28.9808 0.0312533C28.9808 -0.00219729 21.7392 -0.00848667 21.1382 0.0244287ZM33.039 0.0404871C33.039 0.0693884 32.8429 1.16964 32.6032 2.4855C31.8968 6.36456 31.5796 8.10953 31.5077 8.51294C31.372 9.27463 31.3029 9.6524 31.2819 9.74785L31.2604 9.84543L35.0565 9.86229C38.2864 9.87661 38.9443 9.89044 39.4681 9.95502C42.8188 10.3682 44.3608 11.5263 44.7899 13.9524C44.8903 14.5196 44.8875 15.8292 44.7843 16.5857C44.1043 21.5733 42.0881 24.0476 38.0614 24.8359C36.6737 25.1076 36.4762 25.1179 32.301 25.1373L28.4852 25.1549L28.4595 25.2746C28.4118 25.4973 26.701 34.9313 26.701 34.9719C26.701 34.9956 28.3878 35.0045 30.8161 34.9935C35.236 34.9735 35.3238 34.9697 37.2291 34.713C43.7372 33.836 48.7038 30.9975 51.8561 26.3533C53.8599 23.4011 55.1258 19.6861 55.6176 15.3146C55.713 14.4658 55.6992 11.8139 55.5954 11.0552C55.0099 6.77793 52.9372 3.81336 49.2486 1.97737C47.2763 0.995658 45.0319 0.414641 41.9987 0.100607C41.3865 0.0372295 40.6071 0.0221105 37.1541 0.00650019C34.0146 -0.00768286 33.039 0.000346352 33.039 0.0404871ZM18.1464 12.9726C17.0452 13.1321 15.9192 13.9976 15.4786 15.0232C15.2742 15.4992 14.481 19.4082 14.481 19.9398C14.481 20.9186 15.0578 21.6843 16.0085 21.9677C16.2701 22.0457 16.7327 22.0493 26.5414 22.0493C37.617 22.0493 36.9655 22.0631 37.5735 21.8163C38.5015 21.4396 39.2728 20.6359 39.5755 19.73C39.6592 19.4797 40.4433 15.6752 40.4907 15.2894C40.5617 14.7125 40.333 14.0468 39.9155 13.615C39.6386 13.3287 39.4003 13.1807 38.9991 13.0459L38.7158 12.9507L28.5477 12.9448C22.9552 12.9415 18.2746 12.9541 18.1464 12.9726Z" fill="#EBBE7D"/>
</svg>
