<svg width="32" height="32" viewBox="0 0 32 32" fill="none" xmlns="http://www.w3.org/2000/svg">
<g id="Icon - Metamask">
<g id="Group 2735">
<path id="Vector" d="M27.4437 5L17.1455 12.4506L19.0605 8.05974L27.4437 5Z" fill="#E17726"/>
<path id="Vector_2" d="M4.58036 5.00879L12.9411 8.06028L14.7595 12.5087L4.58036 5.00879ZM23.2993 20.8453L27.851 20.93L26.2602 26.2139L20.7062 24.7187L23.2993 20.8453ZM8.70048 20.8453L11.284 24.7187L5.7393 26.2139L4.1582 20.93L8.70048 20.8453Z" fill="#E27625"/>
<path id="Vector_3" d="M14.5124 11.3756L14.6984 17.2499L9.13232 17.0023L10.7156 14.6668L10.7356 14.6443L14.5124 11.3756ZM17.4301 11.3101L21.2645 14.6445L21.2844 14.6669L22.8676 17.0024L17.3028 17.2499L17.4301 11.3101ZM11.4471 20.8624L14.4863 23.1778L10.9559 24.8444L11.4471 20.8624ZM20.5536 20.862L21.0346 24.8445L17.514 23.1776L20.5536 20.862Z" fill="#E27625"/>
<path id="Vector_4" d="M17.5918 22.9595L21.1644 24.6509L17.8412 26.1951L17.8757 25.1745L17.5918 22.9595ZM14.4074 22.9602L14.1347 25.1578L14.1571 26.1939L10.8262 24.6509L14.4074 22.9602Z" fill="#D5BFB2"/>
<path id="Vector_5" d="M13.3757 18.0166L14.3093 19.935L11.1309 19.0246L13.3757 18.0166ZM18.6243 18.0168L20.8797 19.0246L17.6909 19.9347L18.6243 18.0168Z" fill="#233447"/>
<path id="Vector_6" d="M11.6898 20.8427L11.1761 24.9714L8.42236 20.933L11.6898 20.8427ZM20.3101 20.8428L23.5777 20.933L20.8137 24.9716L20.3101 20.8428ZM22.9479 16.7688L20.5699 19.1385L18.7365 18.3192L17.8587 20.1236L17.2832 17.0208L22.9479 16.7688ZM9.05068 16.7688L14.7165 17.0208L14.1409 20.1236L13.263 18.3195L11.4392 19.1386L9.05068 16.7688Z" fill="#CC6228"/>
<path id="Vector_7" d="M8.89062 16.2825L11.5811 18.9519L11.6743 21.5872L8.89062 16.2825ZM23.1122 16.2777L20.3235 21.5919L20.4285 18.9519L23.1122 16.2777ZM14.5851 16.4451L14.6934 17.1115L14.9609 18.7717L14.7889 23.8706L13.9756 19.7745L13.9753 19.7322L14.5851 16.4451ZM17.4136 16.4358L18.025 19.7322L18.0247 19.7745L17.2093 23.8809L17.1771 22.8538L17.0499 18.7414L17.4136 16.4358Z" fill="#E27525"/>
<path id="Vector_8" d="M20.6677 18.8458L20.5767 21.1355L17.7385 23.2976L17.1647 22.9012L17.8078 19.6622L20.6677 18.8458ZM11.3423 18.8458L14.1922 19.6622L14.8353 22.9012L14.2616 23.2976L11.4233 21.1353L11.3423 18.8458Z" fill="#F5841F"/>
<path id="Vector_9" d="M10.2832 24.1453L13.9143 25.8275L13.899 25.1091L14.2028 24.8483H17.7966L18.1114 25.1082L18.0882 25.8261L21.6963 24.1495L19.9406 25.5681L17.8176 26.9938H14.1736L12.0521 25.5622L10.2832 24.1453Z" fill="#C0AC9D"/>
<path id="Vector_10" d="M17.3317 22.7356L17.8451 23.0903L18.1459 25.4373L17.7105 25.0779H14.2909L13.8638 25.4445L14.1548 23.0904L14.6683 22.7356H17.3317Z" fill="#161616"/>
<path id="Vector_11" d="M26.7638 5.2063L28 8.83236L27.228 12.4987L27.7777 12.9134L27.0338 13.4683L27.5929 13.8905L26.8526 14.5497L27.3071 14.8715L26.1009 16.2489L21.1537 14.8405L21.1109 14.818L17.5458 11.8775L26.7638 5.2063ZM5.23619 5.2063L14.4543 11.8775L10.8891 14.818L10.8463 14.8405L5.89909 16.2489L4.69291 14.8715L5.14703 14.55L4.40716 13.8905L4.96516 13.4688L4.21009 12.9123L4.78056 12.4974L4 8.83254L5.23619 5.2063Z" fill="#763E1A"/>
<path id="Vector_12" d="M20.9117 14.5324L26.1535 16.0247L27.8565 21.1567H23.3636L20.268 21.1949L22.5193 16.9041L20.9117 14.5324ZM11.0882 14.5324L9.48027 16.9041L11.7319 21.1949L8.63764 21.1567H4.15283L5.84624 16.0248L11.0882 14.5324ZM19.3172 8.03528L17.851 11.9072L17.5399 17.1377L17.4208 18.7771L17.4113 22.9652H14.5884L14.5792 18.785L14.4598 17.1363L14.1486 11.9072L12.6826 8.03528H19.3172Z" fill="#F5841F"/>
</g>
</g>
</svg>
